<?xml version="1.0" standalone="no"?>
<!DOCTYPE svg PUBLIC "-//W3C//DTD SVG 20010904//EN"
 "http://www.w3.org/TR/2001/REC-SVG-20010904/DTD/svg10.dtd">
<svg version="1.0" xmlns="http://www.w3.org/2000/svg"
 width="64.000000pt" height="64.000000pt" viewBox="0 0 64.000000 64.000000"
 preserveAspectRatio="xMidYMid meet">

<g transform="translate(0.000000,64.000000) scale(0.100000,-0.100000)"
fill="#fff" stroke="none">
<path d="M260 620 c-11 -11 -20 -27 -20 -35 0 -24 -32 -35 -55 -19 -30 22 -54
17 -91 -20 -37 -37 -42 -61 -20 -91 16 -23 5 -55 -19 -55 -29 0 -55 -38 -55
-80 0 -42 26 -80 55 -80 24 0 35 -32 19 -55 -22 -30 -17 -54 20 -91 37 -37 61
-42 91 -20 23 16 55 5 55 -19 0 -29 38 -55 80 -55 42 0 80 26 80 55 0 24 32
35 55 19 30 -22 54 -17 91 20 37 37 42 61 20 91 -16 23 -5 55 19 55 29 0 55
38 55 80 0 42 -26 80 -55 80 -24 0 -35 32 -19 55 22 30 17 54 -20 91 -37 37
-61 42 -91 20 -23 -16 -55 -5 -55 19 0 29 -38 55 -80 55 -27 0 -47 -7 -60 -20z
m100 -49 c0 -24 6 -31 46 -46 43 -16 46 -16 65 1 19 17 21 17 46 -9 26 -25 26
-27 9 -46 -17 -19 -17 -22 -1 -65 15 -40 22 -46 46 -46 27 0 29 -3 29 -40 0
-37 -2 -40 -29 -40 -24 0 -31 -6 -46 -46 -16 -43 -16 -46 1 -65 17 -19 17 -21
-9 -46 -25 -26 -27 -26 -46 -9 -19 17 -22 17 -65 1 -40 -15 -46 -22 -46 -46 0
-27 -3 -29 -40 -29 -37 0 -40 2 -40 29 0 24 -6 31 -46 46 -43 16 -46 16 -65
-1 -19 -17 -21 -17 -46 9 -26 25 -26 27 -9 46 17 19 17 22 1 65 -15 40 -22 46
-46 46 -27 0 -29 3 -29 40 0 37 2 40 29 40 24 0 31 6 46 46 16 43 16 46 -1 65
-17 19 -17 21 9 46 25 26 27 26 46 9 19 -17 22 -17 65 -1 40 15 46 22 46 46 0
27 3 29 40 29 37 0 40 -2 40 -29z"/>
<path d="M261 443 c-124 -65 -93 -242 45 -259 73 -9 141 46 150 122 13 104
-103 186 -195 137z m130 -52 c23 -23 29 -38 29 -71 0 -91 -106 -135 -171 -71
-64 65 -20 171 71 171 33 0 48 -6 71 -29z"/>
</g>
</svg>
