<svg width="60" height="60" viewBox="0 0 60 60" fill="none" xmlns="http://www.w3.org/2000/svg">
<circle cx="30" cy="30" r="30" fill="#010101"/>
<path d="M60 30C60 37.9565 56.8393 45.5871 51.2132 51.2132C45.5871 56.8393 37.9565 60 30 60C22.0435 60 14.4129 56.8393 8.7868 51.2132C3.16071 45.5871 0 37.9565 0 30C0 22.0435 3.16071 14.4129 8.7868 8.7868C14.4129 3.16071 22.0435 0 30 0C37.9565 0 45.5871 3.16071 51.2132 8.7868C56.8393 14.4129 60 22.0435 60 30ZM45.1125 18.6375C44.8446 18.3706 44.5257 18.1604 44.1747 18.0196C43.8238 17.8787 43.448 17.8101 43.07 17.8178C42.6919 17.8255 42.3192 17.9094 41.9743 18.0644C41.6294 18.2194 41.3193 18.4424 41.0625 18.72L28.0388 35.3138L20.19 27.4613C19.6568 26.9645 18.9517 26.694 18.223 26.7068C17.4944 26.7197 16.7992 27.0149 16.2839 27.5302C15.7686 28.0455 15.4735 28.7407 15.4606 29.4693C15.4477 30.1979 15.7182 30.9031 16.215 31.4363L26.1375 41.3625C26.4048 41.6293 26.7231 41.8396 27.0734 41.9807C27.4238 42.1218 27.7989 42.191 28.1765 42.184C28.5542 42.177 28.9265 42.094 29.2714 41.94C29.6162 41.7859 29.9265 41.564 30.1838 41.2875L45.1538 22.575C45.6641 22.0444 45.946 21.3348 45.939 20.5986C45.932 19.8624 45.6366 19.1583 45.1163 18.6375H45.1125Z" fill="#3DDA69"/>
<g clip-path="url(#clip0_978_147)">
<circle cx="30.1277" cy="30.1277" r="30.1277" fill="#FF7E7E"/>
<path d="M38.7529 18.5482L38.897 18.8956L38.7529 18.5482C38.5007 18.6528 38.2716 18.8062 38.0787 18.9994L30.0003 27.0614L21.921 18.9821C21.728 18.7891 21.4989 18.636 21.2468 18.5316L21.106 18.8715L21.2468 18.5316C20.9947 18.4272 20.7244 18.3734 20.4515 18.3734C20.1786 18.3734 19.9084 18.4272 19.6563 18.5316C19.4041 18.636 19.175 18.7891 18.9821 18.9821C18.7891 19.175 18.636 19.4041 18.5316 19.6563C18.4272 19.9084 18.3734 20.1786 18.3734 20.4515C18.3734 20.7244 18.4272 20.9947 18.5316 21.2468C18.636 21.4989 18.7891 21.728 18.9821 21.921L19.2484 21.6547L18.9821 21.921L27.0611 30L18.9821 38.079C18.7891 38.272 18.636 38.5011 18.5316 38.7532C18.4272 39.0053 18.3734 39.2756 18.3734 39.5485C18.3734 39.8214 18.4272 40.0916 18.5316 40.3437C18.636 40.5959 18.7891 40.825 18.9821 41.0179C19.175 41.2109 19.4041 41.364 19.6563 41.4684C19.9084 41.5728 20.1786 41.6266 20.4515 41.6266C20.7244 41.6266 20.9947 41.5728 21.2468 41.4684C21.4989 41.364 21.728 41.2109 21.921 41.0179L30 32.9389L38.079 41.0179C38.272 41.2109 38.5011 41.364 38.7532 41.4684C39.0053 41.5728 39.2756 41.6266 39.5485 41.6266C39.8214 41.6266 40.0916 41.5728 40.3437 41.4684C40.5959 41.364 40.825 41.2109 41.0179 41.0179C41.2109 40.825 41.364 40.5959 41.4684 40.3437C41.5728 40.0916 41.6266 39.8214 41.6266 39.5485C41.6266 39.2756 41.5728 39.0053 41.4684 38.7532C41.364 38.5011 41.2109 38.272 41.0179 38.079L32.9389 30L41.0179 21.921C41.8134 21.1255 41.8135 19.795 41.0182 18.9994C40.8253 18.8062 40.5962 18.6528 40.3441 18.5482C40.0919 18.4436 39.8215 18.3897 39.5485 18.3897C39.2754 18.3897 39.0051 18.4436 38.7529 18.5482Z" fill="#010101" stroke="#010101" stroke-width="0.753191"/>
</g>
<defs>
<clipPath id="clip0_978_147">
<rect width="60" height="60" fill="white"/>
</clipPath>
</defs>
</svg>
