<svg width="26" height="26" viewBox="0 0 26 26" fill="none" xmlns="http://www.w3.org/2000/svg">
<path fill-rule="evenodd" clip-rule="evenodd" d="M2.45358 13C2.45358 7.70797 6.57891 2.45331 13.0002 2.45331C18.1858 2.45331 20.7506 6.29117 21.8426 8.33331H18.6002C18.3527 8.33331 18.1153 8.43164 17.9403 8.60667C17.7652 8.78171 17.6669 9.0191 17.6669 9.26664C17.6669 9.51417 17.7652 9.75157 17.9403 9.92661C18.1153 10.1016 18.3527 10.2 18.6002 10.2H24.2002C24.4478 10.2 24.6852 10.1016 24.8602 9.92661C25.0352 9.75157 25.1336 9.51417 25.1336 9.26664V3.66664C25.1336 3.4191 25.0352 3.18171 24.8602 3.00667C24.6852 2.83164 24.4478 2.73331 24.2002 2.73331C23.9527 2.73331 23.7153 2.83164 23.5403 3.00667C23.3652 3.18171 23.2669 3.4191 23.2669 3.66664V7.05091C21.9528 4.73251 18.9101 0.586639 13.0002 0.586639C5.41598 0.586639 0.586914 6.81197 0.586914 13C0.586914 19.188 5.41598 25.4133 13.0002 25.4133C16.629 25.4133 19.6493 23.976 21.7997 21.7882C22.9408 20.6244 23.8459 19.2508 24.4653 17.7432C24.5119 17.6298 24.5357 17.5084 24.5353 17.3858C24.535 17.2632 24.5105 17.1419 24.4632 17.0288C24.416 16.9157 24.347 16.813 24.26 16.7266C24.1731 16.6402 24.07 16.5717 23.9566 16.5252C23.8433 16.4786 23.7218 16.4548 23.5993 16.4552C23.4767 16.4555 23.3554 16.48 23.2423 16.5272C23.1292 16.5745 23.0265 16.6435 22.9401 16.7305C22.8537 16.8174 22.7852 16.9205 22.7386 17.0338C22.2112 18.318 21.4404 19.4881 20.4688 20.4797C18.6562 22.3277 16.1082 23.5466 13.0002 23.5466C6.57891 23.5466 2.45358 18.292 2.45358 13Z" fill="black"/>
</svg>
